<?xml version="1.0" encoding="UTF-8" standalone="no"?>
<!-- Created with Inkscape (http://www.inkscape.org/) -->

<svg
   xmlns:dc="http://purl.org/dc/elements/1.1/"
   xmlns:cc="http://creativecommons.org/ns#"
   xmlns:rdf="http://www.w3.org/1999/02/22-rdf-syntax-ns#"
   xmlns:svg="http://www.w3.org/2000/svg"
   xmlns="http://www.w3.org/2000/svg"
   version="1.1"
   width="423.7363"
   height="424.68732"
   id="svg2">
  <defs
     id="defs4">
    <style
       type="text/css"
       id="style2989" />
  </defs>
  <metadata
     id="metadata7">
    <rdf:RDF>
      <cc:Work
         rdf:about="">
        <dc:format>image/svg+xml</dc:format>
        <dc:type
           rdf:resource="http://purl.org/dc/dcmitype/StillImage" />
        <dc:title></dc:title>
      </cc:Work>
    </rdf:RDF>
  </metadata>
  <g
     transform="translate(-138.13186,-320.01853)"
     id="layer1">
    <g
       transform="translate(-30,2.8571428)"
       id="layer1-09">
      <g
         id="g3136">
        <g
           transform="translate(62.857143,57.142857)"
           id="layer1-0">
          <g
             transform="matrix(3.543307,0,0,3.543307,-45.794181,-34.034852)"
             id="g3097"
             style="fill-rule:evenodd">
            <g
               id="Camada_x0020_1">
              <metadata
                 id="CorelCorpID_0Corel-Layer" />
              <g
                 id="g19319">
                <polygon
                   points="95.4325,149.473 91.8964,145.9 91.8964,166.868 95.4325,164.203 "
                   id="path19321"
                   style="fill:none" />
              </g>
              <g
                 id="g19323">
                <polygon
                   points="105.958,145.457 99.4933,150.797 104.098,149.745 105.958,148.221 "
                   id="path19325"
                   style="fill:none" />
              </g>
              <g
                 id="g19327">
                <polygon
                   points="100.517,118.846 98.9152,117.452 92.4099,114.454 98.2905,121.043 "
                   id="path19329"
                   style="fill:none" />
              </g>
              <g
                 id="g19331">
                <polygon
                   points="66.7348,174.08 66.7348,168.412 68.7778,168.412 69.4435,171.745 69.4556,171.745 70.1213,168.412 72.1643,168.412 72.1643,174.08 70.8063,174.08 70.8063,170.443 70.7919,170.443 69.9838,174.08 68.9153,174.08 68.1048,170.443 68.0928,170.443 68.0928,174.08 "
                   id="path19333"
                   style="fill:none" />
              </g>
              <g
                 id="g19337">
                <path
                   d="m 76.917,171.887 c 0,1.5727 -0.6996,2.3253 -2.1203,2.3253 -1.4206,0 -2.1274,-0.7526 -2.1274,-2.3253 l 0,-3.4757 1.4353,0 0,3.0899 c 0,0.5788 0,1.3 0.697,1.3 0.6826,0 0.6826,-0.7212 0.6826,-1.3 l 0,-3.0899 1.4328,0 0,3.4757 z"
                   id="path19339"
                   style="fill:none" />
              </g>
              <g
                 id="g19341">
                <path
                   d="m 78.7682,172.173 c 0,0.1423 0.0193,0.2701 0.053,0.3739 0.1038,0.34 0.4173,0.4124 0.6851,0.4124 0.234,0 0.5933,-0.094 0.5933,-0.5162 0,-0.2918 -0.2002,-0.3714 -1.0058,-0.6488 -0.7357,-0.2557 -1.5799,-0.5017 -1.5799,-1.645 0,-1.3073 0.9239,-1.8718 1.8814,-1.8718 1.0106,0 1.9055,0.468 1.9441,1.8501 l -1.3556,0 c 0.0242,-0.2147 -0.053,-0.357 -0.1712,-0.4559 -0.1182,-0.0988 -0.2822,-0.1399 -0.4245,-0.1399 -0.1954,0 -0.5162,0.0628 -0.5162,0.3811 0.0266,0.4028 0.6922,0.4897 1.3508,0.714 0.6608,0.2219 1.3121,0.5958 1.3121,1.6329 0,1.4786 -1.1143,1.9538 -2.1516,1.9538 -0.5306,0 -2.0381,-0.2316 -2.0502,-2.0406 l 1.4352,0 z"
                   id="path19343"
                   style="fill:none" />
              </g>
              <polygon
                 points="81.996,174.081 81.996,168.413 83.4311,168.413 83.4311,174.081 "
                 id="path19345"
                 style="fill:none" />
              <g
                 id="g19347">
                <path
                   d="m 87.0586,170.523 c -0.0265,-0.2075 -0.1568,-0.8346 -0.7526,-0.8346 -0.6705,0 -0.8852,0.796 -0.8852,1.5582 0,0.7598 0.2147,1.5557 0.8852,1.5557 0.4849,0 0.6754,-0.4148 0.7598,-0.9454 l 1.4086,0 c 0,1.1432 -0.7621,2.3565 -2.1274,2.3565 -1.5075,0 -2.3638,-1.2929 -2.3638,-2.9668 0,-1.7849 0.9287,-2.9693 2.3638,-2.9693 1.2808,0.007 1.9827,0.825 2.1081,2.2457 l -1.3965,0 z"
                   id="path19349"
                   style="fill:none" />
              </g>
              <g
                 id="g19351">
                <polygon
                   points="92.1967,174.08 92.1967,169.864 90.8918,169.864 90.8918,168.412 94.9368,168.412 94.9368,169.864 93.6318,169.864 93.6318,174.08 "
                   id="path19353"
                   style="fill:none" />
              </g>
              <g
                 id="g19355">
                <polygon
                   points="96.789,169.864 96.789,170.573 98.9863,170.573 98.9863,171.919 96.789,171.919 96.789,172.628 99.283,172.628 99.283,174.08 95.3538,174.08 95.3538,168.412 99.2082,168.412 99.2082,169.864 "
                   id="path19357"
                   style="fill:none" />
              </g>
              <g
                 id="g19359">
                <polygon
                   points="103.22,172.628 103.22,174.08 99.7222,174.08 99.7222,168.412 101.155,168.412 101.155,172.628 "
                   id="path19361"
                   style="fill:none" />
              </g>
              <g
                 id="g19363">
                <polygon
                   points="105.011,169.864 105.011,170.573 107.211,170.573 107.211,171.919 105.011,171.919 105.011,172.628 107.503,172.628 107.503,174.08 103.576,174.08 103.576,168.412 107.43,168.412 107.43,169.864 "
                   id="path19365"
                   style="fill:none" />
              </g>
              <g
                 id="g19367">
                <polygon
                   points="112.333,168.411 110.879,174.079 109.275,174.079 107.883,168.411 109.333,168.411 110.097,171.848 110.107,171.848 110.862,168.411 "
                   id="path19369"
                   style="fill:none" />
              </g>
              <polygon
                 points="112.872,174.081 112.872,168.413 114.31,168.413 114.31,174.081 "
                 id="path19371"
                 style="fill:none" />
              <g
                 id="g19373">
                <path
                   d="m 116.305,172.173 c 0,0.1423 0.0193,0.2701 0.053,0.3739 0.1038,0.34 0.4173,0.4124 0.685,0.4124 0.2341,0 0.5935,-0.094 0.5935,-0.5162 0,-0.2918 -0.2051,-0.3714 -1.0059,-0.6488 -0.7356,-0.2557 -1.5799,-0.5017 -1.5799,-1.645 0,-1.3073 0.9214,-1.8718 1.8814,-1.8718 1.0107,0 1.9031,0.468 1.9417,1.8501 l -1.3555,0 c 0.0265,-0.2147 -0.0531,-0.357 -0.1713,-0.4559 -0.1158,-0.0988 -0.2798,-0.1399 -0.4222,-0.1399 -0.1953,0 -0.5161,0.0628 -0.5161,0.3811 0.0266,0.4028 0.6923,0.4897 1.3508,0.714 0.6608,0.2219 1.3121,0.5958 1.3121,1.6329 0,1.4786 -1.1168,1.9538 -2.1516,1.9538 -0.5306,0 -2.0381,-0.2316 -2.0502,-2.0406 l 1.4352,0 z"
                   id="path19375"
                   style="fill:none" />
              </g>
              <polygon
                 points="119.532,174.081 119.532,168.413 120.967,168.413 120.967,174.081 "
                 id="path19377"
                 style="fill:none" />
              <g
                 id="g19379">
                <path
                   d="m 123.817,168.277 c 1.4183,0 2.3638,1.2398 2.3638,2.9692 0,1.7295 -0.9455,2.9669 -2.3638,2.9669 -1.4135,0 -2.3614,-1.2374 -2.3614,-2.9669 0,-1.7294 0.9479,-2.9692 2.3614,-2.9692 m 0,4.525 c 0.3666,0 0.9286,-0.2942 0.9286,-1.5558 0,-1.2615 -0.562,-1.5581 -0.9286,-1.5581 -0.3642,0 -0.9262,0.2966 -0.9262,1.5581 0,1.2616 0.562,1.5558 0.9262,1.5558 z"
                   id="path19381"
                   style="fill:none" />
              </g>
              <g
                 id="g19383">
                <polygon
                   points="129.553,171.444 129.553,168.412 130.909,168.412 130.909,174.08 129.515,174.08 128.084,170.986 128.072,170.986 128.072,174.08 126.714,174.08 126.714,168.412 128.183,168.412 129.539,171.444 "
                   id="path19385"
                   style="fill:none" />
              </g>
              <g
                 id="g19387">
                <path
                   d="m 133.041,170.387 -0.3087,0 0,-1.4424 0.5402,0 c 0.3691,0 0.591,0.1037 0.591,0.4366 0,0.2653 -0.1568,0.3594 -0.3473,0.3738 l 0.3666,0.632 -0.3642,0 -0.3328,-0.6079 -0.1448,0 0,0.6079 m 0.2726,-0.8515 c 0.1374,0 0.2219,-0.0289 0.2219,-0.1881 0,-0.1472 -0.1616,-0.1592 -0.2798,-0.1592 l -0.2147,0 0,0.3473 0.2726,0 m -0.0507,1.4713 c -0.7115,0 -1.3459,-0.492 -1.3459,-1.3386 0,-0.8467 0.6344,-1.3411 1.3459,-1.3411 0.7092,0 1.3436,0.4944 1.3436,1.3411 0,0.8466 -0.6344,1.3386 -1.3436,1.3386 m 0,-2.3661 c -0.5306,0 -0.96,0.4076 -0.96,1.0275 0,0.6175 0.4294,1.0299 0.96,1.0275 l 0,0.002 c 0.5186,0 0.9576,-0.4124 0.9576,-1.0299 0,-0.6199 -0.439,-1.0275 -0.9576,-1.0275 z"
                   id="path19389"
                   style="fill:none" />
              </g>
              <g
                 id="g19391">
                <path
                   d="m 143.876,120.836 c -0.5934,-0.4053 -1.6571,-0.6079 -2.7087,-0.5162 -1.0011,0.0844 -1.6668,0.574 -2.2143,1.0275 0.007,-0.005 -1.4255,1.4135 -1.4255,1.4135 l -0.3835,0.6126 c -0.005,0.007 -1.2784,1.5992 -1.2784,1.5992 0,0 -0.012,0.0144 -0.0145,0.0169 l 0,-8.8281 -3.9075,-2.3493 0.002,16.0352 -0.0507,0.0772 -0.9359,1.0999 0,-17.2123 -24.154,0 -8.5918,8.5482 -7.6316,-8.5482 -23.8237,0 0,52.9972 24.2289,0 0,-23.3461 7.1324,7.3568 8.7581,-7.4653 0,23.4546 24.0865,0 -0.002,-22.3644 c 0.188,-0.3207 0.3425,-0.5764 0.3425,-0.5764 0.002,-0.007 0.2049,-0.2991 0.2049,-0.2991 0.0121,-0.0145 0.2172,-0.3426 0.4415,-0.6995 l 0.002,23.9394 3.8978,-2.6918 0,-28.2377 c 0.1713,-0.2556 0.427,-0.6368 0.427,-0.6368 0.0361,-0.0603 0.6006,-0.9044 0.6006,-0.9044 0,-0.003 0.8972,-1.3194 0.8972,-1.3194 0.01,-0.0218 0.3425,-0.4439 0.3425,-0.4439 l 0.8298,-1.1746 c 0.164,-0.3787 0.632,-0.6296 0.8104,-0.7236 l 0.0845,-0.0459 0.1133,-0.082 0.4318,-0.4366 c 0.007,-0.01 0.7501,-0.6367 0.7501,-0.6367 l 1.2687,-0.591 1.1843,-0.6512 c 0.005,-0.002 1.0855,-1.3339 1.0855,-1.3339 l 0.5764,-1.7897 c 0.002,-0.002 0.1689,-1.7343 0.1689,-1.7343 -0.0362,-0.8804 -0.7019,-1.9706 -1.5461,-2.5398 m -29.024,14.4142 c 0.0265,0.1689 0.1181,1.7367 0.1133,1.9948 -0.005,0.7767 0.0483,1.633 0.0242,1.9779 -0.0194,0.2629 0.0168,1.1698 0.0168,1.1698 0.0651,0.7164 0.2195,1.5003 0.234,1.6402 0.0314,0.3667 -0.1061,1.7584 -0.0651,2.0744 0.005,0.0651 0.1182,0.6464 0.094,0.7839 -0.0627,0.3618 0.0434,0.7984 0.0314,0.9624 -0.0193,0.287 -0.0314,0.615 -0.041,0.9648 -0.0193,0.5185 -0.0362,1.054 -0.0844,1.522 -0.0145,0.1182 0.002,0.9359 0.002,0.9359 -0.0941,0.8224 -0.1954,1.6715 -0.0555,2.5229 0.0266,0.1713 -0.007,0.7333 0.007,0.8322 0.0217,0.1278 0.2027,0.7887 0.2292,0.9334 0.0386,0.2171 0.1206,1.2229 0.2291,1.4545 0.1062,0.2339 0.5379,1.2591 0.5765,1.3821 0.1279,0.3883 0.3232,1.3242 0.1472,1.8018 -0.1665,0.451 -0.4173,1.5244 -0.5934,1.7921 -0.152,0.234 -0.3811,0.3714 -0.4897,0.5403 -0.1037,0.1568 -0.3087,0.3015 -0.4799,0.3691 -0.5307,0.2074 -1.4714,0.3521 -2.2867,0.1037 -0.3304,-0.0989 -0.8297,-0.0676 -1.3917,-0.4076 -0.4583,-0.2775 -0.615,-1.0373 -0.6802,-1.4449 -0.0313,-0.1905 0.0241,-0.6994 0.0121,-0.779 -0.0145,-0.1158 -0.1881,-0.8684 -0.1881,-1.1096 -0.002,-0.1206 0.0409,-0.6295 -0.0146,-0.9648 -0.0699,-0.4318 -0.2797,-1.1337 -0.2797,-1.1337 -0.058,-0.287 -0.2123,-0.9093 -0.2196,-0.9286 -0.1663,-0.4655 -0.2484,-0.919 -0.2966,-1.3049 -0.0893,-0.7092 0.0868,-1.3001 0.2436,-1.8235 0.0893,-0.3015 0.1737,-0.5837 0.2098,-0.8683 0.0242,-0.2051 -0.1351,-1.1771 -0.1036,-1.5028 0.01,-0.1326 0.1182,-0.5547 0.123,-0.6102 0.041,-0.2749 0.0506,-1.0082 0.053,-1.1215 0.002,-0.1472 0.1013,-0.7647 0.0892,-1.4039 -0.005,-0.2508 -0.0313,-0.5113 0,-0.7742 0.0314,-0.2798 0.0556,-0.9938 0.003,-1.3242 -0.0845,-0.5042 -0.0507,-0.9552 -0.0531,-0.9769 -0.0362,-0.5282 -0.0675,-1.083 -0.0362,-1.5557 0.005,-0.0749 -0.0868,-0.8756 -0.0892,-1.1241 -0.005,-0.1568 -0.0145,-1.1384 -0.0242,-1.2543 -0.2098,-2.4433 -0.5403,-2.9113 -0.6729,-3.0005 -0.1326,-0.0869 -0.492,-0.082 -0.6971,0.0144 -0.1568,0.0724 -0.5644,0.427 -0.9093,0.6127 -0.3377,0.1785 -0.9673,0.4776 -1.1819,0.6368 -0.2484,0.1881 -0.6561,0.5041 -1.4496,0.9383 -0.2002,0.1085 -0.3522,0.2942 -0.5331,0.4583 -0.2629,0.2315 -0.755,0.7284 -1.551,1.1312 -0.3907,0.1954 -0.738,0.4245 -1.0178,0.6971 -0.1158,0.1158 -0.5427,0.8297 -0.8177,1.0975 -0.2677,0.2556 -0.4366,0.615 -0.4848,0.726 -0.1399,0.2991 -0.2919,0.6343 -0.5861,0.8538 -0.4559,0.3402 -1.4497,0.4029 -2.0503,0.152 -0.3835,-0.1592 -1.1481,-0.673 -1.4809,-1.563 -0.3353,-0.8876 -0.0555,-2.0261 0.6078,-2.7642 0.4366,-0.4848 1.1168,-0.6802 1.7777,-0.8659 0.4075,-0.1158 0.7959,-0.2267 1.095,-0.3932 0.1472,-0.082 0.6175,-0.4341 0.7164,-0.4993 0.1495,-0.0988 0.6826,-0.3569 0.7863,-0.4245 0.0965,-0.0651 0.6585,-0.5547 1.0348,-0.767 0.6223,-0.3474 1.1167,-0.6272 1.4086,-0.8104 0,0 0.8562,-0.4824 1.4111,-1.0083 0.1253,-0.1206 0.6584,-0.3184 1.2421,-0.6488 0.1472,-0.0844 0.7574,-0.2894 0.9118,-0.357 0.1061,-0.0506 0.5306,-0.3618 0.656,-0.4269 0.5476,-0.2847 0.8226,-0.6247 0.6682,-1.4713 -0.0555,-0.2944 -0.1447,-0.5934 -0.1134,-0.948 0.01,-0.0868 0.1351,-0.6199 0.3377,-0.9866 0.1013,-0.188 0.2605,-0.1832 0.3498,-0.3569 0.0892,-0.1785 0.4028,-0.3281 0.6102,-0.3811 0.1447,-0.1399 0.4438,-0.2895 0.7936,-0.3498 0.767,-0.1278 1.7535,0.4342 1.8958,0.4632 0.2702,0.0603 0.7284,0.0192 0.9696,-0.0507 0.0483,-0.01 0.3619,-0.2146 0.4776,-0.2581 0.1544,-0.0579 0.6489,-0.1929 0.7502,-0.2291 0.1519,-0.0531 0.8562,-0.4221 1.0347,-0.4896 0.1834,-0.07 0.6079,-0.1472 0.8177,-0.1954 0.3353,-0.2388 0.9648,-0.4439 1.206,-0.6513 0.2726,-0.2388 0.6416,-0.8104 0.7188,-0.9117 0.1423,-0.1882 0.837,-0.6561 0.9359,-0.7309 0.2267,-0.1785 0.7453,-0.5427 1.0975,-0.644 0.1688,-0.0483 0.6633,0.053 0.9648,0.0507 0.3377,0 0.8104,0.0192 1.1674,0.5595 0.1785,0.2726 0.4776,0.55 0.5548,0.9263 0.2315,1.1746 -0.6465,2.3396 -1.3122,2.7545 -0.0675,0.041 -0.3908,0.1351 -0.5885,0.2002 -0.2774,0.0917 -0.5596,0.2942 -0.7477,0.3449 -0.3739,0.099 -0.5572,0.3594 -0.7116,0.4415 -0.1519,0.0795 -0.6681,0.3979 -0.8346,0.4896 -0.1278,0.0675 -0.3377,0.3666 -0.7163,0.4775 -0.2557,0.0773 -0.7888,0.2292 -1.2133,0.6031 -0.1761,0.1543 -0.8924,0.3014 -1.0975,0.3473 -0.0772,0.0193 -0.9913,0.4052 -1.083,0.9407 -0.0965,0.562 -0.0169,0.7116 -0.123,1.5171 -0.0651,0.5018 -0.0313,1.0927 0.01,1.4038 m 29.7814,-10.2703 c -0.07,0.3279 -0.2533,1.1384 -0.5138,1.6136 -0.1134,0.2098 -0.5644,0.8755 -0.9069,1.1312 -0.3329,0.2461 -0.8153,0.4897 -1.0179,0.5621 -0.1882,0.0675 -1.1095,0.4968 -1.358,0.6295 -0.4463,0.2412 -0.685,0.5113 -0.919,0.7694 -0.1206,0.1351 -0.2388,0.2605 -0.3811,0.386 -0.0555,0.0482 -0.8731,0.3834 -1.1698,1.0757 -0.1809,0.4197 -0.9962,1.2904 -1.1337,1.5413 -0.2026,0.3618 -0.5017,0.9069 -0.8008,1.1988 -0.0892,0.0868 -0.1857,0.2195 -0.287,0.3738 -0.0941,0.1399 -0.1906,0.2967 -0.2943,0.468 -0.0289,0.0458 -0.0531,0.0844 -0.082,0.1302 -0.1929,0.3184 -0.41,0.6802 -0.5354,0.8129 -0.3112,0.3352 -0.4921,0.7694 -0.6392,1.124 -0.0579,0.1374 -0.5693,0.8683 -0.7622,1.3773 -0.0844,0.2291 -0.5282,0.972 -0.5765,1.0853 -0.0941,0.2389 -0.6657,0.7936 -0.7212,0.9022 -0.0821,0.1664 -0.1568,0.3931 -0.234,0.6295 -0.0675,0.2147 -0.2436,0.6368 -0.3039,0.8008 -0.0748,0.123 -0.1713,0.2798 -0.2726,0.4462 -0.005,0.007 -0.007,0.0121 -0.012,0.0169 -0.0748,0.123 -0.1496,0.246 -0.2292,0.3739 -0.1784,0.2894 -0.3594,0.574 -0.4776,0.7574 -0.0796,0.1013 -0.1591,0.2195 -0.2291,0.3256 -0.1134,0.1664 -0.9431,1.5823 -1.1336,1.92 -0.0845,0.1543 -0.1882,0.3087 -0.2943,0.4703 -0.2533,0.3787 -0.5138,0.767 -0.6392,1.247 -0.0796,0.2991 -0.3088,0.7936 -0.3256,0.837 -0.3257,0.8008 -0.4511,1.6619 -0.4848,1.9055 -0.0507,0.398 -0.0387,0.8008 -0.0218,1.1867 0.0169,0.4173 0.0314,0.8129 -0.0361,1.1626 -0.1255,0.6488 -0.3787,1.288 -0.714,1.7994 -0.0892,0.1399 -0.4052,0.5717 -0.7791,0.919 -0.2726,0.2533 -0.7187,0.357 -1.5365,0.3642 -1.107,0.005 -1.5823,-0.4052 -2.1708,-1.2711 -0.0965,-0.1399 -0.2846,-0.5041 -0.5137,-0.9938 -0.2943,-0.6247 -0.5355,-1.1964 -0.7454,-1.9489 -0.0651,-0.2267 -0.1568,-0.4776 -0.2412,-0.7212 -0.0964,-0.2653 -0.3039,-1.0131 -0.3208,-1.1361 -0.0193,-0.123 -0.2798,-0.9938 -0.2967,-1.0782 -0.1013,-0.533 -0.2412,-1.0275 -0.3786,-1.5051 -0.1399,-0.492 -0.2726,-0.9575 -0.3546,-1.4376 -0.0796,-0.4606 -0.3256,-1.206 -0.5065,-1.7463 0,0 -0.3474,-1.1022 -0.4583,-1.4954 -0.152,-0.533 -0.6489,-2.0044 -0.6489,-2.0044 -0.1857,-0.5017 -0.6246,-1.6788 -0.656,-1.8669 -0.2605,-1.5292 -0.2581,-2.7618 0.0168,-3.2997 0.123,-0.246 0.5452,-0.4799 0.8853,-0.6681 0.1133,-0.0651 0.673,-0.427 0.7935,-0.4583 0.3473,-0.0941 0.9287,-0.123 1.4183,-0.0723 0.0651,0.007 0.6657,0.012 0.8828,0.1664 0.808,0.562 0.8659,1.288 0.972,2.6074 0,0 0.1399,1.4183 0.2075,1.9513 0.0483,0.3932 0.1013,0.8008 0.1423,1.2036 0.0265,0.2774 0.041,0.5813 0.0531,0.8732 0.0217,0.5282 0.2026,1.5364 0.2026,1.5364 0.1809,0.6055 0.3545,1.1819 1.0637,1.481 0.193,0.0796 0.4124,0.0651 0.6199,-0.0506 0.4848,-0.2581 0.9262,-1.0444 1.095,-1.9514 0.01,-0.0506 0.0821,-0.1543 0.152,-0.2556 0.1688,-0.234 0.398,-0.5572 0.5162,-1.0879 0.0362,-0.1326 0.3618,-0.5813 0.5548,-0.849 0.1977,-0.2726 0.3811,-0.5282 0.4896,-0.7212 0.0362,-0.0651 0.8418,-1.3218 0.8418,-1.3218 0,0 0.3111,-0.6922 0.4438,-0.9503 0.1327,-0.2629 0.2484,-0.5765 0.2605,-0.6296 0.0651,-0.2701 0.1978,-0.837 0.4631,-1.1505 0.3618,-0.427 0.755,-1.3869 0.7743,-1.428 0.0868,-0.1639 0.3232,-0.5716 0.5427,-0.931 0.0121,-0.0144 0.0338,-0.0458 0.0482,-0.0651 l 0,-0.002 c 0.005,-0.005 0.0121,-0.0145 0.0169,-0.0193 0.0965,-0.1279 0.2219,-0.2967 0.3184,-0.4125 l 0.6947,-0.8224 c 0.1423,-0.1545 0.2846,-0.3136 0.4124,-0.4873 0.1351,-0.1785 0.4221,-0.6006 0.6754,-0.9745 0.1544,-0.2339 0.6006,-0.8153 0.7381,-0.96 0.1351,-0.1399 1.1481,-1.5026 1.3049,-1.7101 0.0651,-0.0844 0.48,-0.5065 0.7308,-0.7598 0,-0.002 0.002,-0.002 0.002,-0.005 0.3473,-0.3498 0.4751,-0.4776 0.521,-0.5379 0.2026,-0.2726 0.4221,-0.5379 0.6343,-0.796 0.2123,-0.2581 0.4293,-0.521 0.6368,-0.7983 0.0916,-0.1159 0.3256,-0.5355 0.3883,-0.6175 0.2195,-0.2895 1.2929,-1.2808 1.3242,-1.3073 0.4993,-0.4125 1.0517,-0.8153 1.8621,-0.8853 0.8876,-0.0771 1.8332,0.0917 2.3011,0.4101 0.6705,0.451 1.2373,1.3676 1.2663,2.0406 0.029,0.6464 -0.0193,0.9093 -0.1543,1.5775 z"
                   id="path19393"
                   style="fill:none" />
              </g>
              <ellipse
                 cx="102.603"
                 cy="142.784"
                 rx="52.7402"
                 ry="52.5639"
                 id="ellipse3030"
                 style="fill:none" />
              <path
                 d="m 102.429,82.9884 c 33.0232,0 59.7938,26.8307 59.7938,59.9281 0,33.0974 -26.7706,59.9281 -59.7938,59.9281 -33.0231,0 -59.7937,-26.8307 -59.7937,-59.9281 0,-33.0974 26.7706,-59.9281 59.7937,-59.9281 z"
                 id="path3032"
                 style="fill:none" />
              <path
                 d="m 98.2137,122.361 -7.6317,-8.5482 -23.8236,0 0,52.9971 24.2289,0 0,-23.3459 7.1324,7.3567 8.7581,-7.4653 0,23.4545 24.0866,0 -0.002,-22.3642 c 0.1882,-0.3208 0.3427,-0.5765 0.3427,-0.5765 0.002,-0.007 0.2049,-0.2992 0.2049,-0.2992 0.0121,-0.0144 0.2172,-0.3425 0.4414,-0.6994 l 0.002,23.9393 3.8978,-2.6916 0,-28.2378 0.4269,-0.6367 c 0.0363,-0.0604 0.6008,-0.9046 0.6008,-0.9046 0,-0.002 0.8972,-1.3193 0.8972,-1.3193 0.01,-0.0217 0.3425,-0.4439 0.3425,-0.4439 l 0.8298,-1.1746 c 0.1639,-0.3788 0.632,-0.6296 0.8104,-0.7236 l 0.0843,-0.0458 0.1133,-0.0821 0.4318,-0.4366 c 0.007,-0.01 0.7502,-0.6368 0.7502,-0.6368 l 1.2687,-0.5908 1.1842,-0.6513 c 0.005,-0.002 1.0855,-1.3339 1.0855,-1.3339 l 0.5764,-1.7898 c 0.003,-0.002 0.169,-1.7342 0.169,-1.7342 -0.0362,-0.8805 -0.7019,-1.9705 -1.5462,-2.5397 -0.5933,-0.4054 -1.657,-0.608 -2.7087,-0.5164 -1.001,0.0845 -1.6666,0.5742 -2.2142,1.0276 0.007,-0.005 -1.4254,1.4135 -1.4254,1.4135 l -0.3835,0.6126 -1.2785,1.5992 -0.0145,0.0169 0,-8.828 -3.9075,-2.3494 0.003,16.0351 -0.0508,0.0773 -0.9358,1.0998 0,-17.2122 -24.1541,0 -8.5918,8.5482 z m 7.0094,11.4573 c 0.1254,-0.1207 0.6586,-0.3184 1.2423,-0.6489 0.1472,-0.0844 0.7574,-0.2895 0.9116,-0.3571 0.1062,-0.0505 0.5306,-0.3618 0.6561,-0.4269 0.5475,-0.2845 0.8226,-0.6246 0.6682,-1.4713 -0.0555,-0.2942 -0.1447,-0.5934 -0.1133,-0.9479 0.01,-0.0868 0.135,-0.6199 0.3377,-0.9865 0.1013,-0.1882 0.2604,-0.1832 0.3497,-0.357 0.0892,-0.1785 0.4028,-0.3281 0.6101,-0.3811 0.1449,-0.1401 0.4439,-0.2894 0.7937,-0.3497 0.7671,-0.1279 1.7537,0.4341 1.8958,0.4631 0.2703,0.0603 0.7284,0.0193 0.9696,-0.0508 0.0482,-0.01 0.3619,-0.2145 0.4776,-0.2579 0.1544,-0.0579 0.6489,-0.1931 0.7502,-0.2292 0.152,-0.0531 0.8563,-0.4221 1.0348,-0.4896 0.1833,-0.07 0.6078,-0.1472 0.8175,-0.1953 0.3355,-0.2389 0.9649,-0.444 1.2061,-0.6514 0.2727,-0.2388 0.6417,-0.8104 0.7189,-0.9117 0.1423,-0.1881 0.8369,-0.6561 0.9357,-0.7309 0.2268,-0.1785 0.7454,-0.5428 1.0976,-0.644 0.1688,-0.0483 0.6633,0.053 0.9648,0.0507 0.3377,0 0.8104,0.0193 1.1675,0.5596 0.1785,0.2725 0.4775,0.5499 0.5548,0.9262 0.2314,1.1746 -0.6466,2.3397 -1.3124,2.7545 -0.0674,0.041 -0.3906,0.1351 -0.5884,0.2002 -0.2774,0.0916 -0.5596,0.2943 -0.7477,0.3449 -0.3739,0.099 -0.5572,0.3595 -0.7116,0.4415 -0.152,0.0795 -0.6681,0.3979 -0.8346,0.4895 -0.1278,0.0676 -0.3377,0.3668 -0.7163,0.4776 -0.2556,0.0772 -0.7887,0.2291 -1.2133,0.6031 -0.176,0.1544 -0.8925,0.3015 -1.0974,0.3473 -0.0773,0.0193 -0.9914,0.4053 -1.0831,0.9407 -0.0964,0.562 -0.0169,0.7115 -0.123,1.5172 -0.0652,0.5017 -0.0313,1.0926 0.01,1.4038 0.0264,0.1689 0.1182,1.7366 0.1133,1.9948 -0.005,0.7765 0.0482,1.6329 0.0241,1.9778 -0.0192,0.2629 0.0168,1.1697 0.0168,1.1697 0.0652,0.7165 0.2196,1.5005 0.2341,1.6403 0.0314,0.3666 -0.106,1.7584 -0.065,2.0744 0.005,0.0652 0.1181,0.6464 0.0939,0.7839 -0.0626,0.3618 0.0435,0.7984 0.0315,0.9625 -0.0194,0.287 -0.0315,0.6149 -0.0411,0.9646 -0.0193,0.5186 -0.0361,1.0542 -0.0843,1.522 -0.0146,0.1182 0.002,0.9361 0.002,0.9361 -0.0941,0.8223 -0.1954,1.6713 -0.0554,2.5229 0.0263,0.1712 -0.007,0.7333 0.007,0.8322 0.0217,0.1277 0.2026,0.7886 0.2291,0.9334 0.0387,0.217 0.1206,1.2228 0.2292,1.4544 0.1061,0.2339 0.5379,1.2591 0.5765,1.382 0.1278,0.3884 0.3231,1.3243 0.1471,1.802 -0.1665,0.4509 -0.4173,1.5243 -0.5933,1.792 -0.152,0.234 -0.3812,0.3715 -0.4897,0.5404 -0.1037,0.1567 -0.3088,0.3014 -0.48,0.3689 -0.5307,0.2075 -1.4713,0.3522 -2.2866,0.1039 -0.3305,-0.0991 -0.8299,-0.0677 -1.3918,-0.4078 -0.4584,-0.2773 -0.6149,-1.0371 -0.6801,-1.4449 -0.0315,-0.1903 0.0241,-0.6993 0.0121,-0.7789 -0.0146,-0.1158 -0.1882,-0.8683 -0.1882,-1.1096 -0.002,-0.1205 0.041,-0.6296 -0.0145,-0.9647 -0.0701,-0.4318 -0.2798,-1.1338 -0.2798,-1.1338 -0.0578,-0.2869 -0.2123,-0.9092 -0.2195,-0.9286 -0.1664,-0.4656 -0.2484,-0.9189 -0.2967,-1.3048 -0.0893,-0.7093 0.0869,-1.3002 0.2436,-1.8236 0.0894,-0.3015 0.1737,-0.5837 0.2098,-0.8683 0.0242,-0.2051 -0.135,-1.1771 -0.1036,-1.5027 0.01,-0.1327 0.1183,-0.5548 0.1229,-0.6103 0.041,-0.2749 0.0507,-1.0083 0.0531,-1.1215 0.002,-0.1472 0.1014,-0.7646 0.0893,-1.4039 -0.005,-0.2509 -0.0315,-0.5112 0,-0.7743 0.0313,-0.2797 0.0555,-0.9938 0.002,-1.3241 -0.0845,-0.5041 -0.0507,-0.9553 -0.0531,-0.977 -0.0362,-0.5281 -0.0675,-1.0829 -0.0362,-1.5557 0.005,-0.0748 -0.0869,-0.8754 -0.0891,-1.124 -0.005,-0.1567 -0.0146,-1.1385 -0.0243,-1.2542 -0.2098,-2.4434 -0.5403,-2.9114 -0.6728,-3.0006 -0.1328,-0.0869 -0.4922,-0.082 -0.6971,0.0144 -0.1569,0.0724 -0.5644,0.4271 -0.9093,0.6128 -0.3377,0.1785 -0.9674,0.4775 -1.1819,0.6366 -0.2486,0.1881 -0.6562,0.5042 -1.4497,0.9383 -0.2003,0.1087 -0.3522,0.2943 -0.5332,0.4583 -0.2628,0.2316 -0.7549,0.7285 -1.5509,1.1314 -0.3908,0.1953 -0.738,0.4244 -1.0178,0.6971 -0.1159,0.1157 -0.5426,0.8297 -0.8178,1.0974 -0.2676,0.2555 -0.4365,0.6151 -0.4847,0.726 -0.1399,0.2992 -0.2918,0.6343 -0.5861,0.8538 -0.456,0.3402 -1.4497,0.4029 -2.0503,0.152 -0.3836,-0.1592 -1.1481,-0.673 -1.481,-1.563 -0.3351,-0.8877 -0.0553,-2.0261 0.6078,-2.7642 0.4366,-0.4848 1.1169,-0.6801 1.7779,-0.8659 0.4075,-0.1158 0.7959,-0.2267 1.0948,-0.3931 0.1472,-0.082 0.6176,-0.4343 0.7166,-0.4995 0.1494,-0.0987 0.6825,-0.3568 0.7862,-0.4244 0.0965,-0.0652 0.6585,-0.5548 1.0348,-0.7671 0.6222,-0.3473 1.1167,-0.627 1.4086,-0.8103 0,0 0.8563,-0.4824 1.411,-1.0082 z m 30.6305,-7.9237 c 0.3472,-0.3496 0.4751,-0.4775 0.521,-0.5377 0.2027,-0.2727 0.4221,-0.5379 0.6344,-0.796 0.2123,-0.2582 0.4293,-0.521 0.6367,-0.7984 0.0916,-0.1159 0.3256,-0.5355 0.3884,-0.6175 0.2195,-0.2895 1.2928,-1.2808 1.3242,-1.3073 0.4993,-0.4125 1.0516,-0.8154 1.862,-0.8853 0.8876,-0.0771 1.8332,0.0917 2.301,0.4101 0.6706,0.4509 1.2374,1.3676 1.2664,2.0406 0.0289,0.6464 -0.0192,0.9093 -0.1544,1.5774 -0.0699,0.3281 -0.2533,1.1385 -0.5138,1.6137 -0.1133,0.2098 -0.5644,0.8756 -0.9069,1.1312 -0.3328,0.246 -0.8153,0.4896 -1.0179,0.562 -0.188,0.0676 -1.1094,0.4969 -1.3579,0.6295 -0.4463,0.2412 -0.6851,0.5114 -0.9189,0.7696 -0.1207,0.135 -0.2388,0.2605 -0.3811,0.3859 -0.0555,0.0482 -0.8731,0.3834 -1.1699,1.0757 -0.181,0.4198 -0.9962,1.2903 -1.1336,1.5412 -0.2026,0.3619 -0.5018,0.9069 -0.8009,1.1989 -0.0892,0.0868 -0.1856,0.2194 -0.2869,0.3738 -0.094,0.14 -0.1906,0.2967 -0.2944,0.468 l -0.0819,0.1302 c -0.193,0.3184 -0.4101,0.6802 -0.5356,0.8129 -0.311,0.3351 -0.492,0.7694 -0.6391,1.124 -0.0578,0.1375 -0.5692,0.8683 -0.7622,1.3772 -0.0845,0.2292 -0.5283,0.9721 -0.5764,1.0853 -0.0941,0.2389 -0.6658,0.7936 -0.7213,0.9023 -0.082,0.1664 -0.1568,0.3932 -0.234,0.6295 -0.0675,0.2146 -0.2435,0.6368 -0.3039,0.8007 l -0.2726,0.4463 c -0.005,0.007 -0.007,0.012 -0.012,0.0169 l -0.2291,0.3738 c -0.1784,0.2896 -0.3595,0.5742 -0.4777,0.7575 -0.0796,0.1013 -0.1591,0.2195 -0.2291,0.3257 -0.1133,0.1663 -0.9431,1.5823 -1.1336,1.9199 -0.0844,0.1543 -0.1881,0.3087 -0.2943,0.4704 -0.2532,0.3785 -0.5138,0.767 -0.6391,1.2469 -0.0796,0.2993 -0.3088,0.7936 -0.3258,0.837 -0.3255,0.8009 -0.4509,1.6619 -0.4847,1.9056 -0.0505,0.398 -0.0386,0.8007 -0.0217,1.1865 0.0168,0.4175 0.0313,0.8131 -0.0362,1.1628 -0.1254,0.6487 -0.3787,1.2879 -0.714,1.7993 -0.0892,0.14 -0.4052,0.5718 -0.7792,0.9191 -0.2724,0.2532 -0.7186,0.3569 -1.5363,0.3642 -1.1072,0.005 -1.5823,-0.4052 -2.1709,-1.2712 -0.0965,-0.1399 -0.2845,-0.504 -0.5137,-0.9937 -0.2942,-0.6248 -0.5355,-1.1965 -0.7453,-1.949 -0.0653,-0.2267 -0.1567,-0.4775 -0.2411,-0.7211 -0.0967,-0.2655 -0.304,-1.0131 -0.3209,-1.1362 -0.0193,-0.123 -0.2798,-0.9938 -0.2967,-1.0781 -0.1013,-0.5331 -0.2413,-1.0275 -0.3786,-1.5051 -0.14,-0.4922 -0.2727,-0.9576 -0.3547,-1.4376 -0.0796,-0.4608 -0.3256,-1.206 -0.5063,-1.7464 0,0 -0.3475,-1.1023 -0.4585,-1.4955 -0.152,-0.533 -0.6488,-2.0043 -0.6488,-2.0043 -0.1857,-0.5017 -0.6247,-1.6789 -0.6562,-1.8669 -0.2604,-1.5292 -0.258,-2.7618 0.017,-3.2996 0.123,-0.2461 0.5452,-0.4801 0.8852,-0.6682 0.1133,-0.0652 0.6729,-0.427 0.7935,-0.4583 0.3473,-0.094 0.9288,-0.1229 1.4184,-0.0723 0.065,0.007 0.6656,0.012 0.8827,0.1663 0.8081,0.5621 0.866,1.2882 0.972,2.6075 0,0 0.14,1.4183 0.2076,1.9513 0.0482,0.3933 0.1013,0.8008 0.1423,1.2035 0.0265,0.2775 0.041,0.5814 0.0529,0.8732 0.0217,0.5283 0.2028,1.5366 0.2028,1.5366 0.1807,0.6053 0.3545,1.1819 1.0636,1.4809 0.193,0.0797 0.4125,0.0651 0.6198,-0.0506 0.4849,-0.2582 0.9264,-1.0444 1.0952,-1.9515 0.01,-0.0505 0.0819,-0.1542 0.152,-0.2555 0.1688,-0.2341 0.398,-0.5572 0.5162,-1.0878 0.0361,-0.1328 0.3618,-0.5814 0.5548,-0.849 0.1977,-0.2727 0.381,-0.5284 0.4896,-0.7213 0.0361,-0.0651 0.8417,-1.3218 0.8417,-1.3218 0,0 0.3111,-0.6922 0.4439,-0.9503 0.1326,-0.2628 0.2484,-0.5766 0.2605,-0.6296 0.0652,-0.27 0.1976,-0.8369 0.4631,-1.1505 0.3618,-0.427 0.7549,-1.3869 0.7742,-1.428 0.0868,-0.164 0.3232,-0.5715 0.5427,-0.931 0.0122,-0.0144 0.0337,-0.0459 0.0483,-0.0651 l 0,-0.002 0.0169,-0.0194 c 0.0965,-0.1279 0.2218,-0.2967 0.3183,-0.4125 l 0.6946,-0.8224 c 0.1423,-0.1544 0.2847,-0.3135 0.4125,-0.4873 0.1351,-0.1785 0.4222,-0.6006 0.6755,-0.9745 0.1543,-0.234 0.6005,-0.8153 0.7381,-0.96 0.135,-0.1398 1.148,-1.5027 1.3048,-1.7101 0.0652,-0.0844 0.4799,-0.5064 0.7308,-0.7598 0,-0.002 0.002,-0.002 0.002,-0.005 z"
                 id="path3034"
                 style="fill:#106e39" />
              <polygon
                 points="95.4326,164.203 95.4326,149.473 91.8965,145.9 91.8965,166.868 "
                 id="polygon3036"
                 style="fill:#106e39" />
              <polygon
                 points="105.958,148.221 105.958,145.457 99.4935,150.797 104.098,149.745 "
                 id="polygon3038"
                 style="fill:#106e39" />
              <polygon
                 points="98.9152,117.452 92.4098,114.454 98.2904,121.043 100.517,118.846 "
                 id="polygon3040"
                 style="fill:#106e39" />
              <path
                 d="m 92.4098,114.454 6.5054,2.9982 1.6017,1.3943 -2.2265,2.1973 -5.8806,-6.5898 z m -25.6514,-0.6413 23.8236,0 7.6317,8.5482 8.5918,-8.5482 24.1541,0 0,17.2122 0.9358,-1.0998 0.0508,-0.0773 -0.003,-16.0351 3.9075,2.3494 0,8.828 0.0145,-0.0169 1.2785,-1.5992 0.3835,-0.6126 c 0,0 1.4326,-1.4184 1.4254,-1.4135 0.5476,-0.4534 1.2132,-0.9431 2.2142,-1.0276 1.0517,-0.0916 2.1154,0.111 2.7087,0.5164 0.8443,0.5692 1.51,1.6592 1.5462,2.5397 0,0 -0.1664,1.7318 -0.169,1.7342 l -0.5764,1.7898 c 0,0 -1.0806,1.3315 -1.0855,1.3339 l -1.1842,0.6513 -1.2687,0.5908 c 0,0 -0.7429,0.6271 -0.7502,0.6368 l -0.4318,0.4366 -0.1133,0.0821 -0.0843,0.0458 c -0.1784,0.094 -0.6465,0.3448 -0.8104,0.7236 l -0.8298,1.1746 c 0,0 -0.3329,0.4222 -0.3425,0.4439 0,0 -0.8972,1.3169 -0.8972,1.3193 0,0 -0.5645,0.8442 -0.6008,0.9046 l -0.4269,0.6367 0,28.2378 -3.8978,2.6916 -0.002,-23.9393 c -0.2242,0.3569 -0.4293,0.685 -0.4414,0.6994 0,0 -0.2027,0.2919 -0.2049,0.2992 0,0 -0.1545,0.2557 -0.3427,0.5765 l 0.002,22.3642 -24.0866,0 0,-23.4545 -8.7581,7.4653 -7.1324,-7.3567 0,23.3459 -24.2289,0 0,-52.9971 z m 35.8446,-23.592 c -29.1276,0 -52.7403,23.5336 -52.7403,52.5639 0,29.0303 23.6127,52.5639 52.7403,52.5639 29.1275,0 52.7402,-23.5336 52.7402,-52.5639 0,-29.0303 -23.6127,-52.5639 -52.7402,-52.5639 z m -3.1095,60.5765 6.464,-5.3403 0,2.7642 -1.8596,1.5244 -4.6044,1.0517 z m -7.597,-4.8963 3.5361,3.5723 0,14.7303 -3.5361,2.6653 0,-20.9679 z m 40.0206,23.7673 c 0,-0.8467 0.6344,-1.3411 1.346,-1.3411 0.7092,0 1.3436,0.4944 1.3436,1.3411 0,0.8466 -0.6344,1.3386 -1.3436,1.3386 -0.7116,0 -1.346,-0.492 -1.346,-1.3386 z m -5.2031,-1.2559 1.469,0 1.3556,3.0319 0.0144,0 0,-3.0319 1.3556,0 0,5.6681 -1.3941,0 -1.4303,-3.0946 -0.0121,0 0,3.0946 -1.3581,0 0,-5.6681 z m -2.8969,-0.1347 c 1.4182,0 2.3638,1.2399 2.3638,2.9693 0,1.7294 -0.9456,2.9667 -2.3638,2.9667 -1.4135,0 -2.3613,-1.2373 -2.3613,-2.9667 0,-1.7294 0.9478,-2.9693 2.3613,-2.9693 z m -4.285,0.1356 1.4351,0 0,5.6683 -1.4351,0 0,-5.6683 z m -4.4819,1.7364 c 0,-1.3074 0.9215,-1.8717 1.8815,-1.8717 1.0106,0 1.903,0.468 1.9417,1.85 l -1.3556,0 c 0.0264,-0.2147 -0.053,-0.357 -0.1712,-0.4559 -0.116,-0.0989 -0.2798,-0.14 -0.4222,-0.14 -0.1954,0 -0.5161,0.0629 -0.5161,0.3812 0.0265,0.4029 0.6922,0.4897 1.3507,0.714 0.6609,0.222 1.312,0.5959 1.312,1.633 0,1.4786 -1.1167,1.9537 -2.1515,1.9537 -0.5306,0 -2.0381,-0.2316 -2.0502,-2.0406 l 1.4353,0 c 0,0.1424 0.0193,0.2701 0.0529,0.3739 0.1039,0.3401 0.4173,0.4125 0.6851,0.4125 0.2339,0 0.5934,-0.0941 0.5934,-0.5163 0,-0.2918 -0.2052,-0.3714 -1.006,-0.6488 -0.7355,-0.2558 -1.5798,-0.5017 -1.5798,-1.645 z m -2.1777,-1.7364 1.4375,0 0,5.6683 -1.4375,0 0,-5.6683 z m -3.5397,-0.002 0.7647,3.4371 0.01,0 0.7551,-3.4371 1.4713,0 -1.4545,5.6683 -1.6039,0 -1.3919,-5.6683 1.4497,0 z m -5.757,8e-4 3.8544,0 0,1.4519 -2.4194,0 0,0.7092 2.2,0 0,1.3459 -2.2,0 0,0.7092 2.4917,0 0,1.4519 -3.9267,0 0,-5.6681 z m -3.8536,0 1.4328,0 0,4.2162 2.0647,0 0,1.4519 -3.4975,0 0,-5.6681 z m -4.3685,0 3.8545,0 0,1.4519 -2.4192,0 0,0.7092 2.1974,0 0,1.3459 -2.1974,0 0,0.7092 2.494,0 0,1.4519 -3.9293,0 0,-5.6681 z m -4.462,-3e-4 4.0452,0 0,1.4521 -1.3051,0 0,4.2162 -1.4351,0 0,-4.2162 -1.305,0 0,-1.4521 z m -4.5447,-0.1341 c 1.2808,0.007 1.9827,0.825 2.1082,2.2455 l -1.3964,0 c -0.0267,-0.2073 -0.157,-0.8345 -0.7528,-0.8345 -0.6706,0 -0.8852,0.7961 -0.8852,1.5582 0,0.7599 0.2146,1.5558 0.8852,1.5558 0.4849,0 0.6755,-0.4148 0.7598,-0.9455 l 1.4086,0 c 0,1.1432 -0.762,2.3565 -2.1274,2.3565 -1.5074,0 -2.3637,-1.2928 -2.3637,-2.9668 0,-1.7849 0.9285,-2.9692 2.3637,-2.9692 z m -4.351,0.1353 1.4351,0 0,5.6683 -1.4351,0 0,-5.6683 z m -2.6007,-0.1353 c 1.0106,0 1.9055,0.468 1.944,1.85 l -1.3555,0 c 0.0242,-0.2147 -0.053,-0.357 -0.1713,-0.4559 -0.1181,-0.0989 -0.282,-0.14 -0.4244,-0.14 -0.1953,0 -0.5161,0.0629 -0.5161,0.3812 0.0264,0.4029 0.6921,0.4897 1.3507,0.714 0.6608,0.222 1.3121,0.5959 1.3121,1.633 0,1.4786 -1.1143,1.9537 -2.1516,1.9537 -0.5306,0 -2.0381,-0.2316 -2.0501,-2.0406 l 1.4351,0 c 0,0.1424 0.0192,0.2701 0.0531,0.3739 0.1037,0.3401 0.4172,0.4125 0.685,0.4125 0.2341,0 0.5933,-0.0941 0.5933,-0.5163 0,-0.2918 -0.2001,-0.3714 -1.0058,-0.6488 -0.7358,-0.2558 -1.58,-0.5017 -1.58,-1.645 0,-1.3074 0.924,-1.8717 1.8815,-1.8717 z m -2.4784,3.6095 c 0,1.5728 -0.6995,2.3254 -2.1202,2.3254 -1.4207,0 -2.1274,-0.7526 -2.1274,-2.3254 l 0,-3.4757 1.4353,0 0,3.0899 c 0,0.5788 0,1.3 0.6969,1.3 0.6826,0 0.6826,-0.7212 0.6826,-1.3 l 0,-3.0899 1.4328,0 0,3.4757 z m -10.1822,-3.4751 2.0431,0 0.6658,3.3334 0.012,0 0.6657,-3.3334 2.0431,0 0,5.6681 -1.358,0 0,-3.6372 -0.0146,0 -0.808,3.6372 -1.0686,0 -0.8104,-3.6372 -0.012,0 0,3.6372 -1.3581,0 0,-5.6681 z"
                 id="path3042"
                 style="fill:#ffca08" />
              <path
                 d="m 133.815,128.369 c -0.1376,0.1447 -0.5838,0.726 -0.7381,0.96 -0.2533,0.3739 -0.5404,0.796 -0.6755,0.9745 -0.1278,0.1738 -0.2702,0.3329 -0.4125,0.4873 l -0.6946,0.8224 c -0.0965,0.1158 -0.2218,0.2846 -0.3183,0.4125 l -0.0169,0.0194 0,0.002 c -0.0146,0.0192 -0.0361,0.0507 -0.0483,0.0651 -0.2195,0.3595 -0.4559,0.767 -0.5427,0.931 -0.0193,0.0411 -0.4124,1.001 -0.7742,1.428 -0.2655,0.3136 -0.3979,0.8805 -0.4631,1.1505 -0.0121,0.053 -0.1279,0.3668 -0.2605,0.6296 -0.1328,0.2581 -0.4439,0.9503 -0.4439,0.9503 0,0 -0.8056,1.2567 -0.8417,1.3218 -0.1086,0.1929 -0.2919,0.4486 -0.4896,0.7213 -0.193,0.2676 -0.5187,0.7162 -0.5548,0.849 -0.1182,0.5306 -0.3474,0.8537 -0.5162,1.0878 -0.0701,0.1013 -0.1423,0.205 -0.152,0.2555 -0.1688,0.9071 -0.6103,1.6933 -1.0952,1.9515 -0.2073,0.1157 -0.4268,0.1303 -0.6198,0.0506 -0.7091,-0.299 -0.8829,-0.8756 -1.0636,-1.4809 0,0 -0.1811,-1.0083 -0.2028,-1.5366 -0.0119,-0.2918 -0.0264,-0.5957 -0.0529,-0.8732 -0.041,-0.4027 -0.0941,-0.8102 -0.1423,-1.2035 -0.0676,-0.533 -0.2076,-1.9513 -0.2076,-1.9513 -0.106,-1.3193 -0.1639,-2.0454 -0.972,-2.6075 -0.2171,-0.1543 -0.8177,-0.1591 -0.8827,-0.1663 -0.4896,-0.0506 -1.0711,-0.0217 -1.4184,0.0723 -0.1206,0.0313 -0.6802,0.3931 -0.7935,0.4583 -0.34,0.1881 -0.7622,0.4221 -0.8852,0.6682 -0.275,0.5378 -0.2774,1.7704 -0.017,3.2996 0.0315,0.188 0.4705,1.3652 0.6562,1.8669 0,0 0.4968,1.4713 0.6488,2.0043 0.111,0.3932 0.4585,1.4955 0.4585,1.4955 0.1807,0.5404 0.4267,1.2856 0.5063,1.7464 0.082,0.48 0.2147,0.9454 0.3547,1.4376 0.1373,0.4776 0.2773,0.972 0.3786,1.5051 0.0169,0.0843 0.2774,0.9551 0.2967,1.0781 0.0169,0.1231 0.2242,0.8707 0.3209,1.1362 0.0844,0.2436 0.1758,0.4944 0.2411,0.7211 0.2098,0.7525 0.4511,1.3242 0.7453,1.949 0.2292,0.4897 0.4172,0.8538 0.5137,0.9937 0.5886,0.866 1.0637,1.2759 2.1709,1.2712 0.8177,-0.007 1.2639,-0.111 1.5363,-0.3642 0.374,-0.3473 0.69,-0.7791 0.7792,-0.9191 0.3353,-0.5114 0.5886,-1.1506 0.714,-1.7993 0.0675,-0.3497 0.053,-0.7453 0.0362,-1.1628 -0.0169,-0.3858 -0.0288,-0.7885 0.0217,-1.1865 0.0338,-0.2437 0.1592,-1.1047 0.4847,-1.9056 0.017,-0.0434 0.2462,-0.5377 0.3258,-0.837 0.1253,-0.4799 0.3859,-0.8684 0.6391,-1.2469 0.1062,-0.1617 0.2099,-0.3161 0.2943,-0.4704 0.1905,-0.3376 1.0203,-1.7536 1.1336,-1.9199 0.07,-0.1062 0.1495,-0.2244 0.2291,-0.3257 0.1182,-0.1833 0.2993,-0.4679 0.4777,-0.7575 l 0.2291,-0.3738 c 0.005,-0.005 0.007,-0.01 0.012,-0.0169 l 0.2726,-0.4463 c 0.0604,-0.1639 0.2364,-0.5861 0.3039,-0.8007 0.0772,-0.2363 0.152,-0.4631 0.234,-0.6295 0.0555,-0.1087 0.6272,-0.6634 0.7213,-0.9023 0.0481,-0.1132 0.4919,-0.8561 0.5764,-1.0853 0.193,-0.5089 0.7044,-1.2397 0.7622,-1.3772 0.1471,-0.3546 0.3281,-0.7889 0.6391,-1.124 0.1255,-0.1327 0.3426,-0.4945 0.5356,-0.8129 l 0.0819,-0.1302 c 0.1038,-0.1713 0.2004,-0.328 0.2944,-0.468 0.1013,-0.1544 0.1977,-0.287 0.2869,-0.3738 0.2991,-0.292 0.5983,-0.837 0.8009,-1.1989 0.1374,-0.2509 0.9526,-1.1214 1.1336,-1.5412 0.2968,-0.6923 1.1144,-1.0275 1.1699,-1.0757 0.1423,-0.1254 0.2604,-0.2509 0.3811,-0.3859 0.2338,-0.2582 0.4726,-0.5284 0.9189,-0.7696 0.2485,-0.1326 1.1699,-0.5619 1.3579,-0.6295 0.2026,-0.0724 0.6851,-0.316 1.0179,-0.562 0.3425,-0.2556 0.7936,-0.9214 0.9069,-1.1312 0.2605,-0.4752 0.4439,-1.2856 0.5138,-1.6137 0.1352,-0.6681 0.1833,-0.931 0.1544,-1.5774 -0.029,-0.673 -0.5958,-1.5897 -1.2664,-2.0406 -0.4678,-0.3184 -1.4134,-0.4872 -2.301,-0.4101 -0.8104,0.0699 -1.3627,0.4728 -1.862,0.8853 -0.0314,0.0265 -1.1047,1.0178 -1.3242,1.3073 -0.0628,0.082 -0.2968,0.5016 -0.3884,0.6175 -0.2074,0.2774 -0.4244,0.5402 -0.6367,0.7984 -0.2123,0.2581 -0.4317,0.5233 -0.6344,0.796 -0.0459,0.0602 -0.1738,0.1881 -0.521,0.5377 0,0.003 -0.003,0.003 -0.003,0.005 -0.2509,0.2534 -0.6656,0.6754 -0.7308,0.7598 -0.1568,0.2074 -1.1698,1.5703 -1.3048,1.7101 z"
                 id="path3044"
                 style="fill:#ffca08" />
              <path
                 d="m 114.842,133.847 c 0.1061,-0.8057 0.0266,-0.9552 0.123,-1.5172 0.0917,-0.5354 1.0058,-0.9214 1.0831,-0.9407 0.2049,-0.0458 0.9214,-0.1929 1.0974,-0.3473 0.4246,-0.374 0.9577,-0.5259 1.2133,-0.6031 0.3786,-0.1108 0.5885,-0.41 0.7163,-0.4776 0.1665,-0.0916 0.6826,-0.41 0.8346,-0.4895 0.1544,-0.082 0.3377,-0.3425 0.7116,-0.4415 0.1881,-0.0506 0.4703,-0.2533 0.7477,-0.3449 0.1978,-0.0651 0.521,-0.1592 0.5884,-0.2002 0.6658,-0.4148 1.5438,-1.5799 1.3124,-2.7545 -0.0773,-0.3763 -0.3763,-0.6537 -0.5548,-0.9262 -0.3571,-0.5403 -0.8298,-0.5596 -1.1675,-0.5596 -0.3015,0.002 -0.796,-0.099 -0.9648,-0.0507 -0.3522,0.1012 -0.8708,0.4655 -1.0976,0.644 -0.0988,0.0748 -0.7934,0.5428 -0.9357,0.7309 -0.0772,0.1013 -0.4462,0.6729 -0.7189,0.9117 -0.2412,0.2074 -0.8706,0.4125 -1.2061,0.6514 -0.2097,0.0481 -0.6342,0.1253 -0.8175,0.1953 -0.1785,0.0675 -0.8828,0.4365 -1.0348,0.4896 -0.1013,0.0361 -0.5958,0.1713 -0.7502,0.2292 -0.1157,0.0434 -0.4294,0.2483 -0.4776,0.2579 -0.2412,0.0701 -0.6993,0.1111 -0.9696,0.0508 -0.1421,-0.029 -1.1287,-0.591 -1.8958,-0.4631 -0.3498,0.0603 -0.6488,0.2096 -0.7937,0.3497 -0.2073,0.053 -0.5209,0.2026 -0.6101,0.3811 -0.0893,0.1738 -0.2484,0.1688 -0.3497,0.357 -0.2027,0.3666 -0.3281,0.8997 -0.3377,0.9865 -0.0314,0.3545 0.0578,0.6537 0.1133,0.9479 0.1544,0.8467 -0.1207,1.1868 -0.6682,1.4713 -0.1255,0.0651 -0.5499,0.3764 -0.6561,0.4269 -0.1542,0.0676 -0.7644,0.2727 -0.9116,0.3571 -0.5837,0.3305 -1.1169,0.5282 -1.2423,0.6489 -0.5547,0.5258 -1.411,1.0082 -1.411,1.0082 -0.2919,0.1833 -0.7864,0.463 -1.4086,0.8103 -0.3763,0.2123 -0.9383,0.7019 -1.0348,0.7671 -0.1037,0.0676 -0.6368,0.3257 -0.7862,0.4244 -0.099,0.0652 -0.5694,0.4175 -0.7166,0.4995 -0.2989,0.1664 -0.6873,0.2773 -1.0948,0.3931 -0.661,0.1858 -1.3413,0.3811 -1.7779,0.8659 -0.6631,0.7381 -0.9429,1.8765 -0.6078,2.7642 0.3329,0.89 1.0974,1.4038 1.481,1.563 0.6006,0.2509 1.5943,0.1882 2.0503,-0.152 0.2943,-0.2195 0.4462,-0.5546 0.5861,-0.8538 0.0482,-0.1109 0.2171,-0.4705 0.4847,-0.726 0.2752,-0.2677 0.7019,-0.9817 0.8178,-1.0974 0.2798,-0.2727 0.627,-0.5018 1.0178,-0.6971 0.796,-0.4029 1.2881,-0.8998 1.5509,-1.1314 0.181,-0.164 0.3329,-0.3496 0.5332,-0.4583 0.7935,-0.4341 1.2011,-0.7502 1.4497,-0.9383 0.2145,-0.1591 0.8442,-0.4581 1.1819,-0.6366 0.3449,-0.1857 0.7524,-0.5404 0.9093,-0.6128 0.2049,-0.0964 0.5643,-0.1013 0.6971,-0.0144 0.1325,0.0892 0.463,0.5572 0.6728,3.0006 0.01,0.1157 0.0194,1.0975 0.0243,1.2542 0.002,0.2486 0.0939,1.0492 0.0891,1.124 -0.0313,0.4728 0,1.0276 0.0362,1.5557 0.002,0.0217 -0.0314,0.4729 0.0531,0.977 0.0531,0.3303 0.0289,1.0444 -0.002,1.3241 -0.0315,0.2631 -0.005,0.5234 0,0.7743 0.0121,0.6393 -0.0869,1.2567 -0.0893,1.4039 -0.002,0.1132 -0.0121,0.8466 -0.0531,1.1215 -0.005,0.0555 -0.1133,0.4776 -0.1229,0.6103 -0.0314,0.3256 0.1278,1.2976 0.1036,1.5027 -0.0361,0.2846 -0.1204,0.5668 -0.2098,0.8683 -0.1567,0.5234 -0.3329,1.1143 -0.2436,1.8236 0.0483,0.3859 0.1303,0.8392 0.2967,1.3048 0.007,0.0194 0.1617,0.6417 0.2195,0.9286 0,0 0.2097,0.702 0.2798,1.1338 0.0555,0.3351 0.0121,0.8442 0.0145,0.9647 0,0.2413 0.1736,0.9938 0.1882,1.1096 0.012,0.0796 -0.0436,0.5886 -0.0121,0.7789 0.0652,0.4078 0.2217,1.1676 0.6801,1.4449 0.5619,0.3401 1.0613,0.3087 1.3918,0.4078 0.8153,0.2483 1.7559,0.1036 2.2866,-0.1039 0.1712,-0.0675 0.3763,-0.2122 0.48,-0.3689 0.1085,-0.1689 0.3377,-0.3064 0.4897,-0.5404 0.176,-0.2677 0.4268,-1.3411 0.5933,-1.792 0.176,-0.4777 -0.0193,-1.4136 -0.1471,-1.802 -0.0386,-0.1229 -0.4704,-1.1481 -0.5765,-1.382 -0.1086,-0.2316 -0.1905,-1.2374 -0.2292,-1.4544 -0.0265,-0.1448 -0.2074,-0.8057 -0.2291,-0.9334 -0.0145,-0.0989 0.0191,-0.661 -0.007,-0.8322 -0.14,-0.8516 -0.0387,-1.7006 0.0554,-2.5229 0,0 -0.0169,-0.8179 -0.002,-0.9361 0.0482,-0.4678 0.065,-1.0034 0.0843,-1.522 0.01,-0.3497 0.0217,-0.6776 0.0411,-0.9646 0.012,-0.1641 -0.0941,-0.6007 -0.0315,-0.9625 0.0242,-0.1375 -0.0892,-0.7187 -0.0939,-0.7839 -0.041,-0.316 0.0964,-1.7078 0.065,-2.0744 -0.0145,-0.1398 -0.1689,-0.9238 -0.2341,-1.6403 0,0 -0.036,-0.9068 -0.0168,-1.1697 0.0241,-0.3449 -0.0289,-1.2013 -0.0241,-1.9778 0.005,-0.2582 -0.0869,-1.8259 -0.1133,-1.9948 -0.041,-0.3112 -0.0749,-0.9021 -0.01,-1.4038 z"
                 id="path3046"
                 style="fill:#ffca08" />
              <path
                 d="m 102.603,90.2203 c 29.1275,0 52.7402,23.5336 52.7402,52.5639 0,29.0303 -23.6127,52.5639 -52.7402,52.5639 -29.1276,0 -52.7403,-23.5336 -52.7403,-52.5639 0,-29.0303 23.6127,-52.5639 52.7403,-52.5639 z m 59.6195,52.6962 c 0,-33.0974 -26.7706,-59.9281 -59.7938,-59.9281 -33.0231,0 -59.7937,26.8307 -59.7937,59.9281 0,33.0974 26.7706,59.9281 59.7937,59.9281 33.0232,0 59.7938,-26.8307 59.7938,-59.9281 z"
                 id="path3048"
                 style="fill:#106e39" />
              <path
                 d="m 124.746,171.247 c 0,-1.2615 -0.562,-1.5581 -0.9285,-1.5581 -0.3643,0 -0.9264,0.2966 -0.9264,1.5581 0,1.2614 0.5621,1.5558 0.9264,1.5558 0.3665,0 0.9285,-0.2944 0.9285,-1.5558 z"
                 id="path3050"
                 style="fill:#ffca08" />
              <path
                 d="m 132.303,169.668 c 0,0.6175 0.4292,1.0299 0.96,1.0275 l 0,0.002 c 0.5185,0 0.9576,-0.4124 0.9576,-1.0299 0,-0.6199 -0.4391,-1.0275 -0.9576,-1.0275 -0.5308,0 -0.96,0.4076 -0.96,1.0275 z m 0.4292,0.7188 0,-1.4424 0.5404,0 c 0.369,0 0.591,0.1037 0.591,0.4366 0,0.2654 -0.1569,0.3594 -0.3475,0.3738 l 0.3668,0.632 -0.3642,0 -0.333,-0.6079 -0.1447,0 0,0.6079 -0.3088,0 z"
                 id="path3052"
                 style="fill:#ffca08" />
              <path
                 d="m 134.221,169.668 c 0,0.6175 -0.4391,1.0299 -0.9576,1.0299 l 0,-0.002 c -0.5308,0.002 -0.96,-0.41 -0.96,-1.0275 0,-0.6199 0.4292,-1.0275 0.96,-1.0275 0.5185,0 0.9576,0.4076 0.9576,1.0275 z m 0.386,0 c 0,-0.8467 -0.6344,-1.3411 -1.3436,-1.3411 -0.7116,0 -1.346,0.4944 -1.346,1.3411 0,0.8466 0.6344,1.3386 1.346,1.3386 0.7092,0 1.3436,-0.492 1.3436,-1.3386 z"
                 id="path3054"
                 style="fill:#106e39" />
              <path
                 d="m 133.314,169.535 c 0.1374,0 0.2219,-0.0289 0.2219,-0.1881 0,-0.1472 -0.1615,-0.1592 -0.2797,-0.1592 l -0.2148,0 0,0.3473 0.2726,0 z"
                 id="path3056"
                 style="fill:#106e39" />
              <polygon
                 points="109.275,174.079 110.879,174.079 112.333,168.411 110.862,168.411 110.107,171.848 110.098,171.848 109.333,168.411 107.883,168.411 "
                 id="polygon3058"
                 style="fill:#106e39" />
              <polygon
                 points="114.31,168.413 112.873,168.413 112.873,174.081 114.31,174.081 "
                 id="polygon3060"
                 style="fill:#106e39" />
              <path
                 d="m 115.05,170.149 c 0,1.1433 0.8443,1.3892 1.5798,1.645 0.8008,0.2774 1.006,0.357 1.006,0.6488 0,0.4222 -0.3595,0.5163 -0.5934,0.5163 -0.2678,0 -0.5812,-0.0724 -0.6851,-0.4125 -0.0336,-0.1038 -0.0529,-0.2315 -0.0529,-0.3739 l -1.4353,0 c 0.0121,1.809 1.5196,2.0406 2.0502,2.0406 1.0348,0 2.1515,-0.4751 2.1515,-1.9537 0,-1.0371 -0.6511,-1.411 -1.312,-1.633 -0.6585,-0.2243 -1.3242,-0.3111 -1.3507,-0.714 0,-0.3183 0.3207,-0.3812 0.5161,-0.3812 0.1424,0 0.3062,0.0411 0.4222,0.14 0.1182,0.0989 0.1976,0.2412 0.1712,0.4559 l 1.3556,0 c -0.0387,-1.382 -0.9311,-1.85 -1.9417,-1.85 -0.96,0 -1.8815,0.5643 -1.8815,1.8717 z"
                 id="path3062"
                 style="fill:#106e39" />
              <polygon
                 points="120.967,168.413 119.532,168.413 119.532,174.081 120.967,174.081 "
                 id="polygon3064"
                 style="fill:#106e39" />
              <path
                 d="m 123.817,168.277 c -1.4135,0 -2.3613,1.2399 -2.3613,2.9693 0,1.7294 0.9478,2.9667 2.3613,2.9667 1.4182,0 2.3638,-1.2373 2.3638,-2.9667 0,-1.7294 -0.9456,-2.9693 -2.3638,-2.9693 z m 0,1.4112 c 0.3665,0 0.9285,0.2966 0.9285,1.5581 0,1.2614 -0.562,1.5558 -0.9285,1.5558 -0.3643,0 -0.9264,-0.2944 -0.9264,-1.5558 0,-1.2615 0.5621,-1.5581 0.9264,-1.5581 z"
                 id="path3066"
                 style="fill:#106e39" />
              <polygon
                 points="128.072,170.985 128.084,170.985 129.515,174.08 130.909,174.08 130.909,168.412 129.553,168.412 129.553,171.444 129.539,171.444 128.183,168.412 126.714,168.412 126.714,174.08 128.072,174.08 "
                 id="polygon3068"
                 style="fill:#106e39" />
              <polygon
                 points="105.011,169.864 107.43,169.864 107.43,168.412 103.576,168.412 103.576,174.08 107.503,174.08 107.503,172.628 105.011,172.628 105.011,171.919 107.211,171.919 107.211,170.573 105.011,170.573 "
                 id="polygon3070"
                 style="fill:#106e39" />
              <polygon
                 points="99.7222,174.08 103.22,174.08 103.22,172.628 101.155,172.628 101.155,168.412 99.7222,168.412 "
                 id="polygon3072"
                 style="fill:#106e39" />
              <polygon
                 points="98.9864,170.573 96.789,170.573 96.789,169.864 99.2082,169.864 99.2082,168.412 95.3537,168.412 95.3537,174.08 99.283,174.08 99.283,172.628 96.789,172.628 96.789,171.919 98.9864,171.919 "
                 id="polygon3074"
                 style="fill:#106e39" />
              <polygon
                 points="92.1967,174.08 93.6318,174.08 93.6318,169.864 94.9369,169.864 94.9369,168.412 90.8917,168.412 90.8917,169.864 92.1967,169.864 "
                 id="polygon3076"
                 style="fill:#106e39" />
              <path
                 d="m 85.4208,171.247 c 0,-0.7621 0.2146,-1.5582 0.8852,-1.5582 0.5958,0 0.7261,0.6272 0.7528,0.8345 l 1.3964,0 c -0.1255,-1.4205 -0.8274,-2.2383 -2.1082,-2.2455 -1.4352,0 -2.3637,1.1843 -2.3637,2.9692 0,1.674 0.8563,2.9668 2.3637,2.9668 1.3654,0 2.1274,-1.2133 2.1274,-2.3565 l -1.4086,0 c -0.0843,0.5307 -0.2749,0.9455 -0.7598,0.9455 -0.6706,0 -0.8852,-0.7959 -0.8852,-1.5558 z"
                 id="path3078"
                 style="fill:#106e39" />
              <polygon
                 points="81.996,174.081 83.4311,174.081 83.4311,168.413 81.996,168.413 "
                 id="polygon3080"
                 style="fill:#106e39" />
              <path
                 d="m 81.5348,172.26 c 0,-1.0371 -0.6513,-1.411 -1.3121,-1.633 -0.6586,-0.2243 -1.3243,-0.3111 -1.3507,-0.714 0,-0.3183 0.3208,-0.3812 0.5161,-0.3812 0.1424,0 0.3063,0.0411 0.4244,0.14 0.1183,0.0989 0.1955,0.2412 0.1713,0.4559 l 1.3555,0 c -0.0385,-1.382 -0.9334,-1.85 -1.944,-1.85 -0.9575,0 -1.8815,0.5643 -1.8815,1.8717 0,1.1433 0.8442,1.3892 1.58,1.645 0.8057,0.2774 1.0058,0.357 1.0058,0.6488 0,0.4222 -0.3592,0.5163 -0.5933,0.5163 -0.2678,0 -0.5813,-0.0724 -0.685,-0.4125 -0.0339,-0.1038 -0.0531,-0.2315 -0.0531,-0.3739 l -1.4351,0 c 0.012,1.809 1.5195,2.0406 2.0501,2.0406 1.0373,0 2.1516,-0.4751 2.1516,-1.9537 z"
                 id="path3082"
                 style="fill:#106e39" />
              <path
                 d="m 74.7967,174.212 c 1.4207,0 2.1202,-0.7526 2.1202,-2.3254 l 0,-3.4757 -1.4328,0 0,3.0899 c 0,0.5788 0,1.3 -0.6826,1.3 -0.6969,0 -0.6969,-0.7212 -0.6969,-1.3 l 0,-3.0899 -1.4353,0 0,3.4757 c 0,1.5728 0.7067,2.3254 2.1274,2.3254 z"
                 id="path3084"
                 style="fill:#106e39" />
              <polygon
                 points="70.8064,174.08 72.1644,174.08 72.1644,168.412 70.1213,168.412 69.4556,171.745 69.4436,171.745 68.7778,168.412 66.7347,168.412 66.7347,174.08 68.0928,174.08 68.0928,170.443 68.1048,170.443 68.9152,174.08 69.9838,174.08 70.7918,170.443 70.8064,170.443 "
                 id="polygon3086"
                 style="fill:#106e39" />
              <path
                 d="m 132.732,168.944 0,1.4424 0.3088,0 0,-0.6079 0.1447,0 0.333,0.6079 0.3642,0 -0.3668,-0.632 c 0.1906,-0.0144 0.3475,-0.1084 0.3475,-0.3738 0,-0.3329 -0.222,-0.4366 -0.591,-0.4366 l -0.5404,0 z m 0.5814,0.5909 -0.2726,0 0,-0.3473 0.2148,0 c 0.1182,0 0.2797,0.012 0.2797,0.1592 0,0.1592 -0.0845,0.1881 -0.2219,0.1881 z"
                 id="path3088"
                 style="fill:#106e39" />
              <path
                 d="m 133.041,169.188 0,0.3473 0.2726,0 c 0.1374,0 0.2219,-0.0289 0.2219,-0.1881 0,-0.1472 -0.1615,-0.1592 -0.2797,-0.1592 l -0.2148,0 z"
                 id="path3090"
                 style="fill:#ffca08" />
            </g>
          </g>
        </g>
      </g>
    </g>
  </g>
</svg>
