<?xml version="1.0" encoding="UTF-8" standalone="no"?>
<svg
   xmlns:dc="http://purl.org/dc/elements/1.1/"
   xmlns:cc="http://creativecommons.org/ns#"
   xmlns:rdf="http://www.w3.org/1999/02/22-rdf-syntax-ns#"
   xmlns:svg="http://www.w3.org/2000/svg"
   xmlns="http://www.w3.org/2000/svg"
   version="1.1"
   id="Layer_1"
   x="0px"
   y="0px"
   width="121.984px"
   height="73.991px"
   viewBox="0 0 121.984 73.991"
   enable-background="new 0 0 121.984 73.991"
   xml:space="preserve"><metadata
     id="metadata9"><rdf:RDF><cc:Work
         rdf:about=""><dc:title></dc:title></cc:Work></rdf:RDF></metadata><defs
     id="defs7" /><path
     style="fill:#0058ff;stroke:none;stroke-width:1px;stroke-linecap:butt;stroke-linejoin:miter;stroke-opacity:1;fill-opacity:0.90588236"
     d="m 99.91485,38.615739 c -0.269307,-5.734203 -0.401412,-8.676863 -0.54008,-16.472448 -0.07441,-4.183267 2.72733,-10.79054 10.39655,-8.236224 6.91012,2.301489 5.60259,9.38207 3.24048,12.286826 l -9.99149,12.286826 c -2.07439,2.550941 -3.044961,1.423181 -3.10546,0.13502 z"
     id="path11" /><ellipse
     style="fill:#0059ff;fill-opacity:0.99215686;stroke-width:2;stroke-linecap:round;stroke-linejoin:round;stop-color:#000000"
     id="path13"
     cx="96.944412"
     cy="50.159958"
     rx="7.9661841"
     ry="7.898674" /><path
     id="path45"
     style="font-style:normal;font-variant:normal;font-weight:bold;font-stretch:normal;font-size:17.7765px;line-height:1.25;font-family:Bahnschrift;-inkscape-font-specification:'Bahnschrift Bold';letter-spacing:0px;word-spacing:0px;fill:#0059ff;fill-opacity:0.992157;stroke-width:0.738859"
     d="M 15.141901,28.888672 9.6751038,42.935547 h 3.5045842 l 2.173828,-5.583985 1.638672,0.06641 c 3.311586,0.05976 1.886607,3.094299 0.923828,5.517578 l 3.5867,0.06751 c 0,0 1.435613,-3.005154 1.277763,-4.583308 -0.07286,-0.728404 -0.183621,-1.339511 -0.997065,-1.956729 1.113486,-0.95038 2.141476,-1.169351 2.629799,-3.069381 0.32567,-0.836707 0.383513,-1.874219 0.309443,-2.504967 -0.07156,-0.637184 -0.329058,-1.130961 -0.77539,-1.478516 -0.446331,-0.347555 -1.05336,-0.521484 -1.820313,-0.521484 h -3.480469 -1.582031 z m 2.512396,2.548828 h 3.269531 c 0.968939,0.311096 0.88314,0.874446 0.71875,1.652344 -0.239893,0.668747 -0.725112,1.053752 -1.214844,1.447265 -0.257127,0.13516 -0.520628,0.203125 -0.789062,0.203125 h -3.269531 z" /><path
     id="path49"
     style="font-style:normal;font-variant:normal;font-weight:bold;font-stretch:normal;font-size:17.7765px;line-height:1.25;font-family:Bahnschrift;-inkscape-font-specification:'Bahnschrift Bold';letter-spacing:0px;word-spacing:0px;fill:#0059ff;fill-opacity:0.992157;stroke-width:0.75555"
     d="m 44.710938,28.695312 -5.533204,14.240235 h 1.363282 1.34375 2.037109 c 1.231918,0 2.354395,-0.2123 3.369141,-0.636719 1.014745,-0.424419 1.881134,-1.017297 2.599609,-1.78125 0.725062,-0.763953 1.287202,-1.658461 1.685547,-2.683594 l 1.568359,-4.035156 c 0.418644,-1.077369 0.554682,-1.997766 0.410157,-2.761719 -0.144527,-0.763952 -0.562759,-1.34584 -1.257813,-1.74414 -0.688466,-0.3983 -1.633052,-0.597656 -2.832031,-0.597657 h -2.044922 -1.34375 z m 2.108184,2.585938 h 1.700409 c 0.889352,0 1.495783,0.212301 1.81836,0.636719 0.322577,0.424418 0.33318,1.025722 0.03125,1.802734 l -1.628907,4.191406 c -0.30193,0.777012 -0.779224,1.378316 -1.43164,1.802735 -0.652418,0.424418 -1.425101,0.636718 -2.314453,0.636718 h -1.700409 z" /><path
     id="path53"
     style="font-style:normal;font-variant:normal;font-weight:bold;font-stretch:normal;font-size:17.7765px;line-height:1.25;font-family:Bahnschrift;-inkscape-font-specification:'Bahnschrift Bold';letter-spacing:0px;word-spacing:0px;fill:#0059ff;fill-opacity:0.992157;stroke-width:0.775452"
     d="m 70.707031,28.898438 -0.785156,2.893086 h 3.524373 l -3.535156,11.550273 h 3.35258 l 3.535156,-11.550273 h 4.064453 l 0.785157,-2.893086 z" /><path
     d="m 84.386792,28.898048 h 2.987821 l -0.470535,9.680587 5.834733,-9.680587 h 2.852801 L 86.664823,43.40895 h -2.802645 z"
     style="font-style:normal;font-variant:normal;font-weight:bold;font-stretch:normal;font-size:17.7765px;line-height:1.25;font-family:Bahnschrift;-inkscape-font-specification:'Bahnschrift Bold';letter-spacing:0px;word-spacing:0px;fill:#0059ff;fill-opacity:0.992157;stroke-width:0.7148"
     id="path55" /><path
     id="path23"
     style="font-style:normal;font-variant:normal;font-weight:bold;font-stretch:normal;font-size:29.1775px;line-height:1.25;font-family:Calibri;-inkscape-font-specification:'Calibri Bold';letter-spacing:0px;word-spacing:0px;fill:#0059ff;fill-opacity:0.992157;stroke-width:1.09416"
     d="m 38.73439,35.495831 c -0.104379,0.698705 -0.821089,1.423226 -1.497596,1.316828 H 29.78126 c -0.351735,1.221853 -0.376118,2.63445 0.593205,3.217601 2.206037,0.108021 3.938182,-0.127278 6.130913,-0.187706 0.831796,0.02581 0.610789,2.088572 -0.708097,3.08252 -2.971142,0.300363 -5.648531,0.501896 -7.655608,-0.252343 -1.45949,-0.568431 -2.2051,-1.998025 -2.153913,-3.719801 0.06284,-1.919455 0.600509,-3.978552 1.622327,-5.886407 1.018027,-1.932043 2.862227,-3.630662 4.863526,-4.211852 1.650568,-0.478419 3.330295,-0.468184 4.684944,0.0863 1.4923,0.603833 2.240707,2.228458 2.066217,4.021757 -0.04227,0.831262 -0.255004,1.684805 -0.490372,2.533064 z m -3.103021,-1.053463 c 0.366794,-1.175832 0.410245,-2.582899 -0.565322,-3.098206 -0.998391,-0.495017 -2.588526,-0.195717 -3.543286,0.987622 -0.508593,0.609812 -0.969173,1.466559 -1.068819,2.110584 z" /><path
     id="path23-7"
     style="font-style:normal;font-variant:normal;font-weight:bold;font-stretch:normal;font-size:29.1775px;line-height:1.25;font-family:Calibri;-inkscape-font-specification:'Calibri Bold';letter-spacing:0px;word-spacing:0px;fill:#0059ff;fill-opacity:0.992157;stroke-width:1.09416"
     d="m 67.75357,35.424026 c -0.104379,0.698706 -0.821089,1.423227 -1.497596,1.316829 H 58.80044 c -0.351735,1.221853 -0.376118,2.634449 0.593205,3.2176 2.206037,0.108022 3.938182,-0.127277 6.130913,-0.187706 0.831796,0.02581 0.610789,2.088573 -0.708097,3.082521 -2.971142,0.300362 -5.648531,0.501896 -7.655608,-0.252343 -1.45949,-0.568431 -2.2051,-1.998026 -2.153913,-3.719802 0.06284,-1.919455 0.600509,-3.978552 1.622327,-5.886407 1.018027,-1.932043 2.862227,-3.630661 4.863526,-4.211851 1.650568,-0.478419 3.330295,-0.468184 4.684944,0.0863 1.4923,0.603834 2.240707,2.228459 2.066217,4.021758 -0.04227,0.831261 -0.255004,1.684805 -0.490372,2.533063 z m -3.103021,-1.053462 c 0.366794,-1.175832 0.410245,-2.5829 -0.565322,-3.098206 -0.998391,-0.495017 -2.588526,-0.195718 -3.543286,0.987622 -0.508593,0.609811 -0.969173,1.466559 -1.068819,2.110584 z" /></svg>
